<svg width="40" height="40" viewBox="0 0 40 40" fill="none" xmlns="http://www.w3.org/2000/svg">
<g id="arrow down">
<rect x="40" y="40" width="40" height="40" rx="20" transform="rotate(-180 40 40)" fill="#303030"/>
<path id="Line 2" d="M19.6464 28.3536C19.8417 28.5488 20.1583 28.5488 20.3536 28.3536L23.5355 25.1716C23.7308 24.9763 23.7308 24.6597 23.5355 24.4645C23.3403 24.2692 23.0237 24.2692 22.8284 24.4645L20 27.2929L17.1716 24.4645C16.9763 24.2692 16.6597 24.2692 16.4645 24.4645C16.2692 24.6597 16.2692 24.9763 16.4645 25.1716L19.6464 28.3536ZM20.5 28L20.5 12.5455L19.5 12.5455L19.5 28L20.5 28Z" fill="#F5F5F5"/>
</g>
</svg>
