<svg width="85" height="86" viewBox="0 0 85 86" fill="none" xmlns="http://www.w3.org/2000/svg">
<path d="M58.6016 43.3536C58.7969 43.1583 58.7969 42.8417 58.6016 42.6464L55.4196 39.4645C55.2244 39.2692 54.9078 39.2692 54.7125 39.4645C54.5173 39.6597 54.5173 39.9763 54.7125 40.1716L57.5409 43L54.7125 45.8284C54.5173 46.0237 54.5173 46.3403 54.7125 46.5355C54.9078 46.7308 55.2244 46.7308 55.4196 46.5355L58.6016 43.3536ZM31.248 43.5H58.248V42.5H31.248V43.5Z" fill="#F5F5F5"/>
<path fill-rule="evenodd" clip-rule="evenodd" d="M83.2472 43C83.2472 65.655 65.1035 84 42.7472 84C27.8227 84 14.7755 75.8243 7.75036 63.6486H6.60061C13.7254 76.396 27.2435 85 42.7472 85C65.6671 85 84.2472 66.196 84.2472 43C84.2472 19.804 65.6671 1 42.7472 1C25.9899 1 11.5523 11.0517 5 25.5225H6.10031C12.5829 11.6164 26.561 2 42.7472 2C65.1035 2 83.2472 20.345 83.2472 43Z" fill="#F5F5F5"/>
<circle cx="42.5" cy="42.5" r="41.5" fill="#F5F5F5" fill-opacity="0.2"/>
</svg>
