<svg width="31" height="31" viewBox="0 0 31 31" fill="none" xmlns="http://www.w3.org/2000/svg">
<g id="clarity:shopping-cart-outline-badged" clip-path="url(#clip0_865_771)">
<path id="Vector" d="M11.6083 27.1667C12.6438 27.1667 13.4833 26.3273 13.4833 25.2917C13.4833 24.2562 12.6438 23.4167 11.6083 23.4167C10.5727 23.4167 9.73328 24.2562 9.73328 25.2917C9.73328 26.3273 10.5727 27.1667 11.6083 27.1667Z" fill="black"/>
<path id="Vector_2" d="M23 27.1667C24.0355 27.1667 24.875 26.3273 24.875 25.2917C24.875 24.2562 24.0355 23.4167 23 23.4167C21.9645 23.4167 21.125 24.2562 21.125 25.2917C21.125 26.3273 21.9645 27.1667 23 27.1667Z" fill="black"/>
<path id="Vector_3" d="M19.3083 6.33341C19.2703 6.05724 19.2508 5.77885 19.2499 5.50008C19.2508 5.22132 19.2703 4.94292 19.3083 4.66675H10.075L10.6166 6.33341H19.3083Z" fill="black"/>
<path id="Vector_4" d="M25.5 11.7501H25.15L24.1084 16.3334H11.6084L7.80003 4.27507C7.75884 4.14712 7.6873 4.03103 7.59153 3.93671C7.49576 3.84239 7.3786 3.77264 7.25003 3.7334L3.83336 2.6834C3.72831 2.65112 3.61792 2.63985 3.5085 2.65022C3.39909 2.6606 3.29279 2.69243 3.19568 2.74389C2.99954 2.84781 2.85273 3.0254 2.78753 3.23757C2.72233 3.44974 2.74409 3.67913 2.84802 3.87526C2.95194 4.07139 3.12952 4.2182 3.3417 4.2834L6.33336 5.20007L10.1584 17.2834L8.7917 18.4001L8.68336 18.5084C8.34531 18.898 8.1537 19.3932 8.14153 19.9089C8.12936 20.4246 8.2974 20.9283 8.6167 21.3334C8.84383 21.6096 9.13245 21.8288 9.45948 21.9736C9.78651 22.1183 10.1429 22.1844 10.5 22.1667H24.4084C24.6294 22.1667 24.8413 22.0789 24.9976 21.9227C25.1539 21.7664 25.2417 21.5544 25.2417 21.3334C25.2417 21.1124 25.1539 20.9004 24.9976 20.7441C24.8413 20.5879 24.6294 20.5001 24.4084 20.5001H10.3667C10.2707 20.4968 10.1772 20.4688 10.0952 20.4189C10.0133 20.3689 9.94552 20.2986 9.89861 20.2149C9.8517 20.1311 9.82718 20.0366 9.82743 19.9406C9.82768 19.8446 9.85268 19.7503 9.90003 19.6667L11.9084 18.0001H24.775C24.9677 18.0048 25.156 17.9426 25.3079 17.8241C25.4599 17.7056 25.566 17.5381 25.6084 17.3501L26.9167 11.5917C26.452 11.6983 25.9767 11.7514 25.5 11.7501Z" fill="black"/>
<path id="Vector_5" d="M25.3438 10.3438C27.6737 10.3438 29.5625 8.45495 29.5625 6.125C29.5625 3.79505 27.6737 1.90625 25.3438 1.90625C23.0138 1.90625 21.125 3.79505 21.125 6.125C21.125 8.45495 23.0138 10.3438 25.3438 10.3438Z" fill="black"/>
<line id="Line 10" x1="25.375" y1="3.78125" x2="25.375" y2="8.46875" stroke="white"/>
<line id="Line 11" x1="23" y1="6.09375" x2="27.6875" y2="6.09375" stroke="white"/>
</g>
<defs>
<clipPath id="clip0_865_771">
<rect width="30" height="30" fill="white" transform="translate(0.5 0.5)"/>
</clipPath>
</defs>
</svg>
