<svg width="25" height="25" viewBox="0 0 25 25" fill="none" xmlns="http://www.w3.org/2000/svg">
<g id="mdi:cart-outline">
<path id="Vector" d="M17.3892 18.6734C17.9196 18.6734 18.4283 18.8841 18.8034 19.2592C19.1784 19.6342 19.3892 20.143 19.3892 20.6734C19.3892 21.2038 19.1784 21.7125 18.8034 22.0876C18.4283 22.4627 17.9196 22.6734 17.3892 22.6734C16.8587 22.6734 16.35 22.4627 15.9749 22.0876C15.5999 21.7125 15.3892 21.2038 15.3892 20.6734C15.3892 19.5634 16.2792 18.6734 17.3892 18.6734ZM1.38916 2.67339H4.65916L5.59916 4.67339H20.3892C20.6544 4.67339 20.9087 4.77874 21.0963 4.96628C21.2838 5.15382 21.3892 5.40817 21.3892 5.67339C21.3892 5.84339 21.3392 6.01339 21.2692 6.17339L17.6892 12.6434C17.3492 13.2534 16.6892 13.6734 15.9392 13.6734H8.48916L7.58916 15.3034L7.55916 15.4234C7.55916 15.4897 7.5855 15.5533 7.63238 15.6002C7.67927 15.647 7.74286 15.6734 7.80916 15.6734H19.3892V17.6734H7.38916C6.85873 17.6734 6.35002 17.4627 5.97495 17.0876C5.59987 16.7125 5.38916 16.2038 5.38916 15.6734C5.38916 15.3234 5.47916 14.9934 5.62916 14.7134L6.98916 12.2634L3.38916 4.67339H1.38916V2.67339ZM7.38916 18.6734C7.91959 18.6734 8.4283 18.8841 8.80337 19.2592C9.17845 19.6342 9.38916 20.143 9.38916 20.6734C9.38916 21.2038 9.17845 21.7125 8.80337 22.0876C8.4283 22.4627 7.91959 22.6734 7.38916 22.6734C6.85873 22.6734 6.35002 22.4627 5.97495 22.0876C5.59987 21.7125 5.38916 21.2038 5.38916 20.6734C5.38916 19.5634 6.27916 18.6734 7.38916 18.6734ZM16.3892 11.6734L19.1692 6.67339H6.52916L8.88916 11.6734H16.3892Z" fill="#F5F5F5"/>
</g>
</svg>
