<svg width="30" height="30" viewBox="0 0 30 30" fill="none" xmlns="http://www.w3.org/2000/svg">
<g id="clarity:shopping-cart-outline-badged" clip-path="url(#clip0_697_2515)">
<path id="Vector" d="M11.1084 26.667C12.1439 26.667 12.9834 25.8275 12.9834 24.792C12.9834 23.7565 12.1439 22.917 11.1084 22.917C10.0729 22.917 9.2334 23.7565 9.2334 24.792C9.2334 25.8275 10.0729 26.667 11.1084 26.667Z" fill="black"/>
<path id="Vector_2" d="M22.5 26.667C23.5355 26.667 24.375 25.8275 24.375 24.792C24.375 23.7565 23.5355 22.917 22.5 22.917C21.4645 22.917 20.625 23.7565 20.625 24.792C20.625 25.8275 21.4645 26.667 22.5 26.667Z" fill="black"/>
<path id="Vector_3" d="M18.8085 5.83366C18.7706 5.55749 18.7511 5.27909 18.7502 5.00033C18.7511 4.72156 18.7706 4.44316 18.8085 4.16699H9.5752L10.1169 5.83366H18.8085Z" fill="black"/>
<path id="Vector_4" d="M25.0004 11.2501H24.6504L23.6087 15.8334H11.1087L7.3004 3.77507C7.2592 3.64712 7.18767 3.53103 7.0919 3.43671C6.99613 3.34239 6.87896 3.27264 6.7504 3.2334L3.33373 2.1834C3.22867 2.15112 3.11829 2.13985 3.00887 2.15022C2.89946 2.1606 2.79316 2.19243 2.69604 2.24389C2.49991 2.34781 2.3531 2.5254 2.2879 2.73757C2.2227 2.94974 2.24445 3.17913 2.34838 3.37526C2.45231 3.57139 2.62989 3.7182 2.84206 3.7834L5.83373 4.70007L9.65873 16.7834L8.29206 17.9001L8.18373 18.0084C7.84568 18.398 7.65406 18.8932 7.6419 19.4089C7.62973 19.9246 7.79776 20.4283 8.11706 20.8334C8.3442 21.1096 8.63282 21.3288 8.95985 21.4736C9.28687 21.6183 9.64322 21.6844 10.0004 21.6667H23.9087C24.1297 21.6667 24.3417 21.5789 24.498 21.4227C24.6543 21.2664 24.7421 21.0544 24.7421 20.8334C24.7421 20.6124 24.6543 20.4004 24.498 20.2441C24.3417 20.0879 24.1297 20.0001 23.9087 20.0001H9.86706C9.7711 19.9968 9.67761 19.9688 9.59561 19.9189C9.51362 19.8689 9.44589 19.7986 9.39898 19.7149C9.35206 19.6311 9.32754 19.5366 9.32779 19.4406C9.32804 19.3446 9.35305 19.2503 9.4004 19.1667L11.4087 17.5001H24.2754C24.468 17.5048 24.6563 17.4426 24.8083 17.3241C24.9602 17.2056 25.0664 17.0381 25.1087 16.8501L26.4171 11.0917C25.9524 11.1983 25.4771 11.2514 25.0004 11.2501Z" fill="black"/>
<path id="Vector_5" d="M24.8438 9.84375C27.1737 9.84375 29.0625 7.95495 29.0625 5.625C29.0625 3.29505 27.1737 1.40625 24.8438 1.40625C22.5138 1.40625 20.625 3.29505 20.625 5.625C20.625 7.95495 22.5138 9.84375 24.8438 9.84375Z" fill="#60C148"/>
<line id="Line 10" x1="24.875" y1="3.28125" x2="24.875" y2="7.96875" stroke="white"/>
<line id="Line 11" x1="22.5" y1="5.59375" x2="27.1875" y2="5.59375" stroke="white"/>
</g>
<defs>
<clipPath id="clip0_697_2515">
<rect width="30" height="30" fill="white"/>
</clipPath>
</defs>
</svg>
