<svg width="43" height="40" viewBox="0 0 43 40" fill="none" xmlns="http://www.w3.org/2000/svg">
<circle cx="20" cy="20" r="20" fill="#F5F5F5" fill-opacity="0.2"/>
<path fill-rule="evenodd" clip-rule="evenodd" d="M37.2387 28C34.219 34.4961 27.6355 39 20 39C9.50659 39 1 30.4934 1 20C1 9.50659 9.50659 1 20 1C27.6355 1 34.219 5.50394 37.2387 12H38.3358C35.2496 4.93638 28.2013 0 20 0C8.9543 0 0 8.9543 0 20C0 31.0457 8.9543 40 20 40C28.2013 40 35.2496 35.0636 38.3358 28H37.2387Z" fill="#F5F5F5"/>
<path d="M18.6464 19.6464C18.4512 19.8417 18.4512 20.1583 18.6464 20.3536L21.8284 23.5355C22.0237 23.7308 22.3403 23.7308 22.5355 23.5355C22.7308 23.3403 22.7308 23.0237 22.5355 22.8284L19.7071 20L22.5355 17.1716C22.7308 16.9763 22.7308 16.6597 22.5355 16.4645C22.3403 16.2692 22.0237 16.2692 21.8284 16.4645L18.6464 19.6464ZM19 20.5H43V19.5H19V20.5Z" fill="#F5F5F5"/>
</svg>
