<svg width="60" height="59" viewBox="0 0 60 59" fill="none" xmlns="http://www.w3.org/2000/svg">
<path fill-rule="evenodd" clip-rule="evenodd" d="M58.1964 29.5C58.1964 45.2401 45.4365 58 29.6964 58C19.2509 58 10.1179 52.3806 5.15553 44H4C9.06415 52.9553 18.6744 59 29.6964 59C45.9888 59 59.1964 45.7924 59.1964 29.5C59.1964 13.2076 45.9888 0 29.6964 0C19.0898 0 9.79058 5.59768 4.59181 14H5.77589C10.8565 6.1754 19.6721 1 29.6964 1C45.4365 1 58.1964 13.7599 58.1964 29.5Z" fill="#F5F5F5"/>
<path d="M39.5735 29.3536C39.7688 29.1583 39.7688 28.8417 39.5735 28.6464L36.3915 25.4645C36.1963 25.2692 35.8797 25.2692 35.6844 25.4645C35.4892 25.6597 35.4892 25.9763 35.6844 26.1716L38.5129 29L35.6844 31.8284C35.4892 32.0237 35.4892 32.3403 35.6844 32.5355C35.8797 32.7308 36.1963 32.7308 36.3915 32.5355L39.5735 29.3536ZM24.22 29.5H39.22V28.5H24.22V29.5Z" fill="#F5F5F5"/>
</svg>
