<svg width="43" height="40" viewBox="0 0 43 40" fill="none" xmlns="http://www.w3.org/2000/svg">
<path fill-rule="evenodd" clip-rule="evenodd" d="M5.76129 12C8.78103 5.50394 15.3645 1 23 1C33.4934 1 42 9.50659 42 20C42 30.4934 33.4934 39 23 39C15.3645 39 8.78103 34.4961 5.76129 28H4.66417C7.7504 35.0636 14.7987 40 23 40C34.0457 40 43 31.0457 43 20C43 8.95431 34.0457 0 23 0C14.7987 0 7.7504 4.93638 4.66417 12H5.76129Z" fill="#F5F5F5"/>
<path d="M24.3536 20.3536C24.5488 20.1583 24.5488 19.8417 24.3536 19.6464L21.1716 16.4645C20.9763 16.2692 20.6597 16.2692 20.4645 16.4645C20.2692 16.6597 20.2692 16.9763 20.4645 17.1716L23.2929 20L20.4645 22.8284C20.2692 23.0237 20.2692 23.3403 20.4645 23.5355C20.6597 23.7308 20.9763 23.7308 21.1716 23.5355L24.3536 20.3536ZM24 19.5L0 19.5V20.5L24 20.5V19.5Z" fill="#F5F5F5"/>
</svg>
